<?xml version="1.0" encoding="UTF-8"?><svg id="Layer_1" xmlns="http://www.w3.org/2000/svg" viewBox="0 0 262.85 251.12"><defs><style>.cls-1,.cls-2{stroke:#1d1d1b;stroke-miterlimit:10;}.cls-1,.cls-3{fill:#2b3e50;}.cls-2{fill:none;}</style></defs><polygon class="cls-3" points="103.89 138.22 101.48 132.23 101.12 120.1 104.7 111.23 110.68 103.49 119.11 98.65 128.43 96 139.67 97.1 151.15 102.27 157.83 110.05 161.9 118.88 162.3 129.79 160.27 136.55 154.3 144.77 150.8 147.87 146.81 150.43 144.25 154.22 142.95 157.9 142.7 163.25 144.81 166.99 146.18 169.2 148.81 171.36 153.41 173.11 156.38 172.91 160.82 171.97 167.31 167.33 175.74 159.51 182.33 149.66 186.49 139.81 188.44 126.21 186.97 113.83 181.84 100.15 174.11 89.33 164.91 81.67 152.05 74.59 139.18 71.9 127.78 71.58 118.19 73.01 105.15 77.28 91.71 86.64 81.58 98.97 76.39 111.27 74.74 123.52 75.96 136.47 78.22 144.09 81.37 150.06 143.74 249.88 156.73 247.87 170.85 244.92 103.89 138.22"/><path class="cls-1" d="m262.35,125.56c0,45.58-25.51,85.45-63.65,107.3-.54.32-1.07.62-1.62.91-.02.02-.03.02-.05.02-1.55.74-3.28,1.14-5.1,1.14-6.68,0-12.09-5.41-12.09-12.09,0-4.08,2.01-7.67,5.1-9.85,0,0,0,0,0,0,0,0,.02,0,.03-.02.67-.36,1.34-.75,2-1.14,0,0,0,0,.02,0,0,0,.02,0,.03-.02,30.24-17.83,50.4-49.79,50.4-86.22,0-55.93-47.46-101.26-106-101.26S25.42,69.63,25.42,125.56c0,17.32,4.55,33.62,12.57,47.87,1.5,2.67,3.13,5.27,4.88,7.8l37.17,59.38c-.08-.03-.14-.06-.22-.09C33.17,221.4.5,177.12.5,125.56.5,56.48,59.12.5,131.43.5s130.92,55.98,130.92,125.06Z"/><path class="cls-2" d="m184.96,212.97s.02,0,.03-.02"/><line class="cls-2" x1="170.76" y1="244.87" x2="157.43" y2="223.75"/><path class="cls-2" d="m102.98,185.49l18.86,30.14,6.99,11.16,14.58,23.3c9.44-.82,18.6-2.59,27.35-5.22l-13.33-21.12-6.09-9.67-14.46-22.92"/><line class="cls-2" x1="129.55" y1="250.6" x2="129.54" y2="250.6"/><path class="cls-2" d="m200.14,130.2c0-.08.02-.15.02-.23"/><path class="cls-2" d="m199.95,132.3c-.04.39-.08.78-.13,1.18"/><path class="cls-2" d="m199.18,137.47c-.02.14-.05.3-.09.44"/><path class="cls-2" d="m198.57,140.31c.14-.58.28-1.18.4-1.77"/><path class="cls-2" d="m198.44,140.86c-.11.46-.23.91-.35,1.36-.12.46-.26.91-.39,1.36"/><path class="cls-2" d="m197.57,143.99c-.07.24-.14.47-.22.71v.03"/><path class="cls-2" d="m196.68,146.7c-.03.1-.07.19-.11.28,0,.02,0,.03,0,.04"/><path class="cls-2" d="m196.11,148.23c.07-.16.12-.33.19-.5"/><path class="cls-2" d="m195.94,148.68l-.26.63"/><path class="cls-2" d="m195.53,149.69c-.13.33-.28.65-.41.97"/><path class="cls-2" d="m195.02,150.87c-.18.44-.37.86-.57,1.29-.17.38-.35.76-.55,1.14"/><path class="cls-2" d="m192.35,156.28c-.16.31-.33.61-.52.92"/><path class="cls-2" d="m191.82,157.23c-.17.3-.34.59-.53.89-.06.11-.12.21-.18.32"/><path class="cls-2" d="m189.02,161.67c-.05.07-.1.13-.15.2-.11.17-.23.34-.35.52"/><path class="cls-2" d="m187.84,163.33c-.11.16-.24.33-.37.49"/><path class="cls-2" d="m186.9,164.56c-.32.42-.65.83-.99,1.24"/><path class="cls-2" d="m183.97,168.1c-.05.06-.1.11-.14.16"/><path class="cls-2" d="m182.46,169.75c.15-.16.32-.33.46-.5"/><path class="cls-2" d="m179.46,172.72s-.1.09-.14.13"/><path class="cls-2" d="m177.9,174.13c-.12.11-.25.22-.38.33"/><path class="cls-2" d="m176.73,175.12c-.23.19-.46.38-.7.58"/><path class="cls-2" d="m171.19,179.29c-.22.15-.44.3-.67.44"/><path class="cls-2" d="m169.95,180.11c-.31.2-.61.4-.92.58-.06.04-.12.08-.18.11"/><line class="cls-2" x1="121.83" y1="215.63" x2="102.98" y2="185.49"/><path class="cls-2" d="m174.56,176.86c-.5.38-.99.76-1.5,1.12"/><path class="cls-2" d="m175.27,176.31c-.21.17-.42.33-.63.5"/><path class="cls-2" d="m182.46,169.75c.15-.16.32-.33.46-.5.22-.23.43-.46.63-.69"/><path class="cls-2" d="m185.2,166.67c.08-.08.14-.16.21-.25.12-.15.26-.31.37-.46"/><path class="cls-2" d="m103.13,185.73l-17.57-28.02c-7.06-11.71-10.91-20.14-10.91-32.15,0-29.94,25.41-54.22,56.77-54.22s56.76,24.28,56.76,54.22c0,19.29-10.54,36.22-26.42,45.83,0,0-.02.02-.04.02-.43.27-.87.53-1.31.77"/><path class="cls-2" d="m147.39,150.45s.02,0,.03-.02c.44-.26.87-.53,1.3-.8t0,0c8.13-5.29,13.48-14.22,13.48-24.32,0-16.23-13.79-29.4-30.78-29.4s-30.78,13.16-30.78,29.4c0,4.78,1.2,9.3,3.32,13.29"/><polyline class="cls-2" points="105.58 141.25 129.77 179.61 136.88 191.16"/><path class="cls-1" d="m226.2,125.56c0,32.66-18.11,61.29-45.27,77.21,0,0,0,0-.02,0-.63.36-1.27.74-1.91,1.09,0,0-.02.02-.03.02-1.58.72-3.34,1.12-5.19,1.12-6.92,0-12.53-5.62-12.53-12.54,0-4.52,2.38-8.47,5.96-10.68.12-.07.25-.14.37-.22.42-.24.84-.5,1.25-.76h0c.16-.11.32-.2.48-.3.2-.14.41-.27.62-.41.19-.11.38-.24.57-.37.22-.14.45-.3.67-.44.22-.15.45-.31.67-.46.28-.19.55-.38.81-.57.12-.1.26-.18.38-.28.51-.36,1-.74,1.5-1.12.02-.02.05-.04.08-.06.21-.16.42-.33.63-.5.26-.2.51-.4.77-.6.23-.2.47-.39.7-.58.27-.22.53-.44.78-.67.12-.11.26-.21.38-.33.48-.42.96-.85,1.43-1.27.05-.05.1-.1.14-.13,1.02-.96,2.03-1.95,2.99-2.97.15-.16.31-.33.46-.5.22-.23.43-.46.63-.69.1-.11.19-.2.28-.31.06-.06.11-.11.14-.16.42-.47.83-.95,1.23-1.43.08-.09.14-.16.21-.25.12-.15.25-.31.37-.46.05-.06.1-.11.12-.16.34-.41.67-.82.99-1.24.2-.25.39-.5.56-.75.13-.16.26-.33.37-.49.07-.09.13-.17.19-.27.17-.23.33-.45.49-.67.17-.24.33-.48.51-.72.47-.68.92-1.37,1.36-2.08.25-.38.49-.77.73-1.16.24-.4.48-.8.71-1.21,0-.02.02-.03.02-.04.18-.31.35-.61.52-.92.17-.31.34-.61.51-.92.33-.61.63-1.21.94-1.83.04-.08.08-.15.11-.23.19-.37.37-.76.55-1.14.2-.42.39-.85.57-1.29.04-.07.07-.13.1-.21.14-.32.28-.64.41-.97.06-.12.11-.26.15-.38.09-.21.17-.42.26-.63.06-.15.11-.3.17-.45.07-.17.13-.33.19-.5.09-.24.17-.48.26-.72.04-.1.08-.19.11-.28,0,0,0-.02,0-.04.23-.64.45-1.3.66-1.95,0,0,0,0,0-.02.08-.25.15-.49.22-.74.05-.13.09-.28.12-.41.14-.45.27-.9.39-1.36.12-.45.24-.91.35-1.36.05-.18.1-.36.13-.55.14-.58.28-1.18.4-1.77.04-.21.09-.42.12-.63.03-.14.06-.29.09-.44.21-1.09.39-2.19.55-3.3.03-.2.06-.41.08-.61,0-.03,0-.05,0-.08.05-.39.1-.78.13-1.18.06-.49.11-.98.14-1.47.02-.21.04-.42.05-.63,0-.08.02-.15.02-.23.11-1.45.15-2.93.15-4.41,0-36.33-30.84-65.8-68.88-65.8s-68.88,29.47-68.88,65.8c0,13.58,4.31,26.18,11.68,36.66h0s31.62,50.53,31.62,50.53l7.93,12.67,15.76,25.19c-11.45-.16-22.55-1.72-33.11-4.52l-21.98-35.13-23.86-38.13-.04-.07-.04-.06-1.3-2.09c-7.98-13.27-12.55-28.65-12.55-45.06,0-50,42.43-90.53,94.78-90.53s94.77,40.53,94.77,90.53Z"/><path class="cls-2" d="m200.16,129.97c0,.08,0,.15-.02.23,0,.21-.03.42-.05.63"/><path class="cls-2" d="m199.8,133.55c-.02.21-.05.41-.08.61"/><path class="cls-2" d="m198.57,140.31c.14-.58.28-1.18.4-1.77"/><path class="cls-2" d="m198.44,140.86c-.11.46-.23.91-.35,1.36-.12.46-.26.91-.39,1.36"/><path class="cls-2" d="m197.57,143.99c-.07.24-.14.47-.22.71,0,0,0,.03,0,.05"/><path class="cls-2" d="m196.67,146.74c-.03.09-.06.16-.1.24,0,.02,0,.03,0,.04"/><path class="cls-2" d="m196.11,148.23c.07-.16.12-.33.19-.5"/><path class="cls-2" d="m195.02,150.87c-.18.44-.37.86-.57,1.29-.17.38-.35.76-.55,1.14"/><path class="cls-2" d="m193.8,153.53c-.31.61-.62,1.22-.94,1.83"/><path class="cls-2" d="m192.35,156.28c-.16.31-.33.61-.52.92"/><path class="cls-2" d="m191.82,157.23c-.17.3-.34.59-.53.89-.3.5-.59.99-.91,1.47"/><path class="cls-2" d="m189.02,161.67c-.05.07-.1.13-.15.2-.27.4-.55.79-.84,1.19"/><path class="cls-2" d="m174.56,176.86c-.5.38-.99.76-1.5,1.12"/><path class="cls-2" d="m172.67,178.26c-.27.19-.54.38-.81.57"/><path class="cls-2" d="m169.32,180.52c-.11.06-.2.11-.3.17-.06.04-.12.08-.18.11"/><path class="cls-2" d="m168.84,180.81c-.41.26-.83.51-1.25.76"/><line class="cls-2" x1="151.34" y1="214.08" x2="136.88" y2="191.16"/><line class="cls-2" x1="74.23" y1="162.22" x2="70.85" y2="156.82"/><line class="cls-2" x1="129.55" y1="250.6" x2="129.54" y2="250.6"/><line class="cls-2" x1="42.87" y1="181.23" x2="37.99" y2="173.43"/><path class="cls-2" d="m180.91,202.78c-.6.42-1.24.78-1.91,1.09"/><path class="cls-2" d="m198.7,232.86c-.52.34-1.05.65-1.62.91"/><path class="cls-2" d="m184.96,212.97s.02,0,.03-.02c.62-.45,1.29-.82,2-1.14"/><path class="cls-2" d="m103.78,138.3s1.37,2.3,2.28,3.72"/><path class="cls-2" d="m149.46,149.12s-.03.02-.04.03c-.62.31-1.2.7-1.75,1.12-3.08,2.33-5.06,6.02-5.06,10.17,0,7.04,5.7,12.75,12.75,12.75,3.23,0,6.19-1.21,8.44-3.2"/></svg>